<svg 
 xmlns="http://www.w3.org/2000/svg"
 xmlns:xlink="http://www.w3.org/1999/xlink"
 width="162px" height="194px">
<defs>
<linearGradient id="PSgrad_0" x1="0%" x2="100%" y1="0%" y2="0%">
  <stop offset="0%" stop-color="rgb(195,53,0)" stop-opacity="1" />
  <stop offset="52%" stop-color="rgb(255,176,130)" stop-opacity="1" />
  <stop offset="100%" stop-color="rgb(255,135,61)" stop-opacity="1" />
</linearGradient>

</defs>
<path fill-rule="evenodd"  fill="rgb(255, 255, 255)"
 d="M161.428,154.620 L123.14,154.620 L123.14,116.206 L161.428,116.206 L161.428,154.620 ZM84.601,116.206 L84.601,77.793 L123.14,77.793 L123.14,116.206 L84.601,116.206 ZM161.428,39.379 L161.428,77.793 L123.14,77.793 L123.14,39.379 L161.428,39.379 ZM62.993,0.966 L101.407,0.966 L101.407,39.379 L62.993,39.379 L62.993,0.966 ZM77.398,116.206 L38.985,116.206 L38.985,173.826 L0.571,173.826 L0.571,20.173 L38.985,20.173 L38.985,77.793 L77.398,77.793 L77.398,116.206 ZM101.407,193.33 L62.993,193.33 L62.993,154.620 L101.407,154.620 L101.407,193.33 Z"/>
<path fill="url(#PSgrad_0)"
 d="M161.428,154.620 L123.14,154.620 L123.14,116.206 L161.428,116.206 L161.428,154.620 ZM84.601,116.206 L84.601,77.793 L123.14,77.793 L123.14,116.206 L84.601,116.206 ZM161.428,39.379 L161.428,77.793 L123.14,77.793 L123.14,39.379 L161.428,39.379 ZM62.993,0.966 L101.407,0.966 L101.407,39.379 L62.993,39.379 L62.993,0.966 ZM77.398,116.206 L38.985,116.206 L38.985,173.826 L0.571,173.826 L0.571,20.173 L38.985,20.173 L38.985,77.793 L77.398,77.793 L77.398,116.206 ZM101.407,193.33 L62.993,193.33 L62.993,154.620 L101.407,154.620 L101.407,193.33 Z"/>
</svg>
